<?xml version="1.0" standalone="no"?>
<!DOCTYPE svg PUBLIC "-//W3C//DTD SVG 20010904//EN"
 "http://www.w3.org/TR/2001/REC-SVG-20010904/DTD/svg10.dtd">
<svg version="1.0" xmlns="http://www.w3.org/2000/svg"
 width="256.000000pt" height="256.000000pt" viewBox="0 0 256.000000 256.000000"
 preserveAspectRatio="xMidYMid meet">

<g transform="translate(0.000000,256.000000) scale(0.100000,-0.100000)"
fill="#000000" stroke="none">
<path d="M0 2051 l0 -100 273 -3 c243 -3 276 -5 307 -22 19 -10 166 -149 326
-308 l291 -289 -294 -288 c-161 -159 -310 -297 -331 -307 -33 -17 -68 -19
-304 -22 l-268 -3 0 -101 0 -100 283 4 c255 4 287 6 338 25 31 11 72 31 92 45
19 13 169 156 332 317 164 161 312 302 329 312 29 18 56 19 436 19 l405 0
-143 -143 -142 -142 73 -73 73 -72 236 237 c256 258 268 275 235 339 -9 16
-120 133 -247 259 l-231 230 -69 -75 -69 -75 142 -142 142 -143 -385 0 c-245
0 -399 4 -424 11 -31 9 -100 71 -361 324 -186 181 -339 322 -363 334 -87 45
-141 51 -419 51 l-263 0 0 -99z"/>
</g>
</svg>
