<?xml version="1.0" encoding="utf-8"?>

<!DOCTYPE svg PUBLIC "-//W3C//DTD SVG 1.1//EN" "http://www.w3.org/Graphics/SVG/1.1/DTD/svg11.dtd">
<svg version="1.1" id="Layer_1" xmlns="http://www.w3.org/2000/svg" xmlns:xlink="http://www.w3.org/1999/xlink" x="0px" y="0px"
	 viewBox="0 0 1128.125 1652.736" enable-background="new 0 0 1128.125 1652.736" xml:space="preserve">
<g>
	<polygon fill="#AA09CB" points="49.813,785.33 49.813,461.077 49.812,461.078 49.812,785.328 93.382,1117.688 152.152,1403.438 
		152.156,1403.441 93.385,1117.692 	"/>
	<polygon fill="#125D97" points="384.202,42.581 567.544,26.463 384.202,42.578 182.552,156.068 88.619,371.908 182.555,156.071 	
		"/>
	<polygon fill="#F0EB73" points="219.729,1452.638 394.332,1579.758 541.262,1626.368 541.263,1626.368 394.335,1579.756 	"/>
	<polygon fill="#D6099F" points="941.512,1425.738 941.513,1425.737 900.682,1452.186 	"/>
	<polygon fill="#C2092F" points="568.622,26.368 568.622,26.368 571.083,26.572 	"/>
	<polygon fill="#5E2F1D" points="1078.312,466.138 1053.956,403.627 1078.312,466.14 1069.192,803.569 1068.045,810.475 
		1069.192,803.568 	"/>
	<polygon fill="#CAA301" points="558.027,465.506 232.2,605.036 444.375,680.397 	"/>
	<polygon fill="#86BFA7" points="232.2,605.036 231.979,646.201 444.375,680.397 	"/>
	<polygon fill="#FCDD4F" points="554.53,863.335 484.878,1092.831 548.606,1093.978 	"/>
	<polygon fill="#A819E9" points="887.501,611.422 558.027,465.506 670.327,685.448 	"/>
	<polygon fill="#F25F55" points="670.327,685.448 558.027,465.506 560.247,687.933 	"/>
	<polygon fill="#24E159" points="560.247,687.933 558.027,465.506 444.375,680.397 	"/>
	<polygon fill="#60BBA3" points="888.615,654.184 887.501,611.422 670.327,685.448 	"/>
	<polygon fill="#50D32D" points="573.535,741.951 664.773,797.809 670.327,685.448 	"/>
	<polygon fill="#3C5BC5" points="484.878,1092.831 547.701,1133.554 548.606,1093.978 	"/>
	<polygon fill="#B0E1B3" points="818.385,732.071 888.615,654.184 670.327,685.448 	"/>
	<polygon fill="#06CD0B" points="554.53,863.335 611.794,884.229 573.535,741.951 	"/>
	<polygon fill="#D03DC5" points="547.701,1133.554 612.82,1093.978 548.606,1093.978 	"/>
	<polygon fill="#FA6BC9" points="612.82,1093.978 611.794,884.229 554.53,863.335 	"/>
	<polygon fill="#767525" points="752.727,759.996 670.327,685.448 664.773,797.809 818.385,732.071 670.327,685.448 	"/>
	<polygon fill="#9A7353" points="548.606,1093.978 612.82,1093.978 554.53,863.335 	"/>
	<polygon fill="#F09F6F" points="405.91,1114.969 345.479,1295.118 446.045,1244.298 	"/>
	<polygon fill="#5623A5" points="446.045,1244.298 345.479,1295.118 462.327,1296.761 	"/>
	<polygon fill="#5AE3EB" points="447.386,1243.62 547.701,1248.998 547.701,1133.554 512.603,1247.116 405.91,1114.969 
		446.045,1244.298 	"/>
	<polygon fill="#6E8707" points="345.479,1295.118 444.159,1336.41 462.327,1296.761 	"/>
	<polygon fill="#5E37DF" points="547.701,1297.987 462.327,1296.761 545.163,1342.797 547.701,1299.79 	"/>
	<polygon fill="#08A3F9" points="484.878,1092.831 405.91,1114.969 452.079,1131.125 	"/>
	<polygon fill="#8E3161" points="444.159,1336.41 545.163,1342.797 462.327,1296.761 	"/>
	<polygon fill="#B899D1" points="310.495,834.055 405.91,1114.969 458.903,1037.895 	"/>
	<polygon fill="#3E2F37" points="301.22,821.317 232.906,988.803 405.91,1114.969 310.495,834.055 	"/>
	<polygon fill="#70A191" points="167.363,785.33 232.906,988.803 235.342,810.384 	"/>
	<polygon fill="#4E13AF" points="265.727,815.839 265.729,743.742 339.483,745.792 335.986,814.849 378.8,811.942 447.632,790.775 
		365.179,752.211 295.764,724.245 244.996,750.194 167.363,785.33 235.342,810.384 	"/>
	<polygon fill="#1C2D07" points="493.745,882.151 484.878,1092.831 554.53,863.335 	"/>
	<polygon fill="#1CF5B9" points="231.979,646.201 295.764,724.245 444.375,680.397 	"/>
	<polygon fill="#90112D" points="458.903,1037.895 405.91,1114.969 484.878,1092.831 	"/>
	<polygon fill="#581BF1" points="752.029,41.572 709.613,248.092 956.709,154.046 	"/>
	<polygon fill="#CC03D5" points="646.266,1133.554 612.82,1093.978 547.701,1133.554 	"/>
	<polygon fill="#F0D53B" points="581.316,1248.998 646.266,1133.554 547.701,1133.554 	"/>
	<polygon fill="#0CEBCD" points="641.678,1037.551 664.773,797.809 611.794,884.229 	"/>
	<polygon fill="#CEE33B" points="547.701,1297.987 547.701,1248.998 462.327,1296.761 	"/>
	<polygon fill="#BEB137" points="736.807,820.817 664.773,797.809 641.678,1037.551 	"/>
	<polygon fill="#5ED395" points="631.991,1299.197 547.701,1248.998 547.701,1297.987 	"/>
	<polygon fill="#FCF943" points="649.74,1250.433 547.701,1248.998 631.991,1299.197 	"/>
	<polygon fill="#2E7761" points="568.622,26.368 568.622,26.368 414.964,248.458 709.613,248.092 	"/>
	<polygon fill="#8CF70F" points="541.263,1626.368 691.228,1587.859 545.501,1408.744 	"/>
	<polygon fill="#7A3307" points="384.202,42.581 182.555,156.071 414.964,248.458 	"/>
	<polygon fill="#DCDFDB" points="941.514,1425.732 1013.448,1138.984 851.732,1305.53 	"/>
	<polygon fill="#7CDF03" points="804.997,824.874 773.337,825.163 736.807,820.817 641.678,1037.551 	"/>
	<polygon fill="#2AE7C9" points="956.715,154.054 956.712,154.048 956.709,154.046 709.613,248.092 928.627,395.044 	"/>
	<polygon fill="#A2E113" points="446.045,1244.298 462.327,1296.761 547.701,1248.998 447.386,1243.62 	"/>
	<polygon fill="#6C67DF" points="547.701,1297.987 547.701,1299.79 545.163,1342.797 631.991,1299.197 	"/>
	<polygon fill="#14A16F" points="303.92,814.698 303.673,815.304 304.124,815.298 	"/>
	<polygon fill="#F0CDD9" points="554.53,863.335 573.535,741.951 560.247,687.933 533.589,743.765 	"/>
	<polygon fill="#72DD9D" points="670.327,685.448 560.247,687.933 573.535,741.951 	"/>
	<polygon fill="#CAD36D" points="493.745,882.151 554.53,863.335 533.589,743.765 	"/>
	<polygon fill="#70B105" points="560.247,687.933 444.375,680.397 533.589,743.765 	"/>
	<polygon fill="#B2953F" points="444.375,680.397 447.632,790.775 533.589,743.765 	"/>
	<polygon fill="#849B4B" points="447.632,790.775 458.903,1037.895 493.745,882.151 	"/>
	<polygon fill="#445577" points="533.589,743.765 447.632,790.775 493.745,882.151 	"/>
	<polygon fill="#5E137D" points="365.179,752.211 447.632,790.775 444.375,680.397 	"/>
	<polygon fill="#2E29F1" points="303.673,815.304 301.22,821.317 310.495,834.055 304.124,815.298 	"/>
	<polygon fill="#863F2B" points="458.903,1037.895 484.878,1092.831 493.745,882.151 	"/>
	<polygon fill="#1AC7F3" points="304.124,815.298 335.986,814.849 339.483,745.792 265.729,743.742 265.727,815.839 
		303.673,815.304 303.92,814.698 	"/>
	<polygon fill="#2653E3" points="335.986,814.849 304.124,815.298 310.495,834.055 458.903,1037.895 378.8,811.942 	"/>
	<polygon fill="#72B5F7" points="378.8,811.942 458.903,1037.895 447.632,790.775 	"/>
	<polygon fill="#DCF723" points="452.079,1131.125 547.701,1133.554 484.878,1092.831 	"/>
	<polygon fill="#EAD3F3" points="300.054,819.715 301.22,821.317 303.673,815.304 265.727,815.839 235.342,810.384 232.906,988.803 
		301.22,821.317 	"/>
	<polygon fill="#8E5143" points="646.266,1344.339 691.23,1587.859 691.232,1587.858 749.557,1305.973 	"/>
	<polygon fill="#4E81EF" points="545.501,1408.744 691.228,1587.859 691.23,1587.859 646.266,1344.339 	"/>
	<polygon fill="#F627AD" points="691.232,1587.858 691.232,1587.858 691.235,1587.857 851.732,1305.53 749.557,1305.973 	"/>
	<polygon fill="#7441AD" points="805.403,824.87 693.258,1121.254 872.909,1007.048 806.171,824.863 	"/>
	<polygon fill="#7C0BA7" points="167.363,785.33 49.813,785.33 232.906,988.803 	"/>
	<polygon fill="#081B4B" points="852.385,823.341 852.385,824.482 852.385,823.341 847.962,824.482 806.171,824.863 
		872.909,1007.048 874.994,817.511 	"/>
	<polygon fill="#14A9B3" points="749.557,1305.973 851.732,1305.53 693.258,1121.254 	"/>
	<polygon fill="#D475DF" points="851.732,1305.53 872.909,1007.048 693.258,1121.254 	"/>
	<polygon fill="#AA398F" points="405.91,1114.969 244.54,1288.835 345.479,1295.118 	"/>
	<polygon fill="#D631C3" points="232.906,988.803 244.54,1288.835 405.91,1114.969 	"/>
	<polygon fill="#64E1D7" points="444.159,1336.41 545.501,1408.744 545.163,1342.797 	"/>
	<polygon fill="#E87573" points="49.813,785.33 93.385,1117.692 232.906,988.803 	"/>
	<polygon fill="#C03919" points="244.54,1288.835 394.335,1579.756 345.479,1295.118 	"/>
	<polygon fill="#325787" points="394.335,1579.756 545.501,1408.744 444.159,1336.41 	"/>
	<polygon fill="#FE0791" points="345.479,1295.118 394.335,1579.756 444.159,1336.41 	"/>
	<polygon fill="#784923" points="545.163,1342.797 545.501,1408.744 646.266,1344.339 	"/>
	<polygon fill="#987DE9" points="244.54,1288.835 93.385,1117.692 152.156,1403.441 152.157,1403.442 	"/>
	<polygon fill="#669B0D" points="124.388,677.131 49.813,461.076 49.813,461.077 49.813,785.33 	"/>
	<polygon fill="#62DFB3" points="244.54,1288.835 152.157,1403.442 219.729,1452.638 394.335,1579.756 	"/>
	<polygon fill="#16CF6D" points="874.994,817.511 872.909,1007.048 952.577,797.505 	"/>
	<polygon fill="#DA3119" points="545.501,1408.744 394.335,1579.756 541.263,1626.368 541.263,1626.368 	"/>
	<polygon fill="#7E638D" points="198.53,391.325 182.555,156.071 88.619,371.908 49.815,461.073 	"/>
	<polygon fill="#60CFF3" points="851.732,1305.53 691.235,1587.857 900.682,1452.186 941.513,1425.737 941.514,1425.732 	"/>
	<polygon fill="#144961" points="872.909,1007.048 1013.453,1138.964 1068.045,810.475 1069.192,803.569 	"/>
	<polygon fill="#9A698F" points="952.577,797.505 1069.192,803.569 997.569,690.428 	"/>
	<polygon fill="#8203D9" points="1069.192,803.569 1078.312,466.14 997.569,690.428 	"/>
	<polygon fill="#6809B3" points="872.909,1007.048 1069.192,803.569 952.577,797.505 	"/>
	<polygon fill="#4AB139" points="709.613,248.092 752.029,41.572 752.022,41.568 571.083,26.572 568.622,26.368 568.622,26.368 	"/>
	<polygon fill="#B2A1A5" points="414.964,248.458 568.622,26.368 567.544,26.463 384.202,42.581 	"/>
	<polygon fill="#547513" points="545.163,1342.797 646.266,1344.339 631.991,1299.197 	"/>
	<polygon fill="#8071F1" points="997.569,690.428 1078.312,466.14 928.627,395.044 	"/>
	<polygon fill="#E87389" points="928.627,395.044 1078.312,466.14 1053.956,403.627 956.715,154.054 	"/>
	<polygon fill="#024B8B" points="952.577,797.505 997.569,690.428 870.523,763.386 	"/>
	<polygon fill="#486195" points="581.316,1248.998 693.258,1121.254 646.266,1133.554 	"/>
	<polygon fill="#9663C1" points="773.337,752.7 773.337,825.163 804.997,824.874 805.794,823.835 806.171,824.863 847.962,824.482 
		852.385,823.341 852.385,752.7 	"/>
	<polygon fill="#F27945" points="818.385,732.071 664.773,797.809 736.807,820.817 773.337,825.163 773.337,752.7 852.385,752.7 
		852.385,823.341 874.994,817.511 875.006,816.415 874.994,817.511 952.577,797.505 870.523,763.386 	"/>
	<polygon fill="#184BCF" points="818.385,732.071 997.569,690.428 888.615,654.184 	"/>
	<polygon fill="#DAD141" points="870.523,763.386 997.569,690.428 818.385,732.071 	"/>
	<polygon fill="#78FBC7" points="804.997,824.874 805.403,824.87 805.794,823.835 	"/>
	<polygon fill="#62F75D" points="611.794,884.229 612.82,1093.978 693.258,1121.254 641.678,1037.551 	"/>
	<polygon fill="#228BF7" points="547.701,1133.554 547.701,1248.998 649.74,1250.433 693.258,1121.254 581.316,1248.998 	"/>
	<polygon fill="#2A4BCF" points="646.266,1133.554 693.258,1121.254 612.82,1093.978 	"/>
	<polygon fill="#9EA169" points="641.678,1037.551 693.258,1121.254 805.403,824.87 804.997,824.874 	"/>
	<polygon fill="#988D21" points="805.403,824.87 806.171,824.863 805.794,823.835 	"/>
	<polygon fill="#706F43" points="888.615,654.184 997.569,690.428 887.501,611.422 	"/>
	<polygon fill="#EAF58B" points="631.991,1299.197 749.557,1305.973 649.74,1250.433 	"/>
	<polygon fill="#326BA3" points="646.266,1344.339 749.557,1305.973 631.991,1299.197 	"/>
	<polygon fill="#A891FB" points="231.979,646.201 124.388,677.131 295.764,724.245 	"/>
	<polygon fill="#627BB1" points="749.557,1305.973 693.258,1121.254 649.74,1250.433 	"/>
	<polygon fill="#40F31D" points="244.996,750.194 124.388,677.131 167.363,785.33 	"/>
	<polygon fill="#F8CB7B" points="295.764,724.245 124.388,677.131 244.996,750.194 	"/>
	<polygon fill="#BE1F7F" points="997.569,690.428 928.627,395.044 887.501,611.422 	"/>
	<polygon fill="#EA3785" points="198.53,391.325 124.388,677.131 232.2,605.036 	"/>
	<polygon fill="#D2F519" points="928.627,395.044 709.613,248.092 558.027,465.506 	"/>
	<polygon fill="#688DAD" points="887.501,611.422 928.627,395.044 558.027,465.506 	"/>
	<polygon fill="#706939" points="414.964,248.458 198.53,391.325 558.027,465.506 	"/>
	<polygon fill="#EE5501" points="182.555,156.071 198.53,391.325 414.964,248.458 	"/>
	<polygon fill="#325787" points="709.613,248.092 414.964,248.458 558.027,465.506 	"/>
	<polygon fill="#EC9767" points="558.027,465.506 198.53,391.325 232.2,605.036 	"/>
	<polygon fill="#A40507" points="49.815,461.073 49.813,461.076 124.388,677.131 198.53,391.325 	"/>
	<polygon fill="#9663C1" points="93.385,1117.692 244.54,1288.835 232.906,988.803 	"/>
	<polygon fill="#4A938B" points="1013.448,1138.984 1013.452,1138.968 1013.453,1138.964 872.909,1007.048 851.732,1305.53 	"/>
	<polygon fill="#5A3781" points="452.079,1131.125 405.91,1114.969 512.603,1247.116 	"/>
	<polygon fill="#0C09AF" points="512.603,1247.116 547.701,1133.554 452.079,1131.125 	"/>
	<polygon fill="#C479FB" points="232.2,605.036 124.388,677.131 231.979,646.201 	"/>
	<polygon fill="#FE97E1" points="124.388,677.131 49.813,785.33 167.363,785.33 	"/>
	<polygon fill="#76A5AF" points="444.375,680.397 295.764,724.245 365.179,752.211 	"/>
	<polygon fill="#DEA95D" points="611.794,884.229 664.773,797.809 573.535,741.951 	"/>
</g>
</svg>
